<svg width="107" height="33" viewBox="0 0 107 33" fill="none" xmlns="http://www.w3.org/2000/svg">
<path d="M53.9937 2.94364V17.6575C53.9937 22.1598 57.645 25.8111 62.1473 25.8111H78.4892V31.0428C78.4892 32.7143 80.4516 33.613 81.7194 32.5233L89.5126 25.8111H103.224L106.736 22.8674V8.1319C106.736 3.6383 103.098 0 98.6041 0H57.506L53.9937 2.94364Z" fill="black"/>
<path d="M59.7334 2.22729H98.2221C101.708 2.22729 104.535 5.05371 104.535 8.54005V20.6446H91.8225L84.2941 27.6086V20.6402H65.4166C62.2776 20.6402 59.7377 18.096 59.7377 14.9613V2.22729H59.7334Z" fill="white"/>
<path d="M63.3582 6.91172C64.2526 6.91172 64.9776 6.18667 64.9776 5.29229C64.9776 4.3979 64.2526 3.67285 63.3582 3.67285C62.4638 3.67285 61.7388 4.3979 61.7388 5.29229C61.7388 6.18667 62.4638 6.91172 63.3582 6.91172Z" fill="#EB2C2C"/>
<path d="M75.2802 14.0542V17.1975H67.4565V5.49243H70.9168V14.0498H75.2802V14.0542Z" fill="#EB2C2C"/>
<path d="M79.3573 5.49268V17.1934H75.897V5.49268H79.3573Z" fill="#EB2C2C"/>
<path d="M91.8609 5.49219L87.949 17.1929H83.6682L79.7563 5.49219H83.4989L85.8043 13.8325L88.1097 5.49219H91.8609Z" fill="#EB2C2C"/>
<path d="M100.205 14.3535V17.1929H92.2471V5.49219H100.036V8.34899H95.7074V9.93803H99.502V12.6472H95.7074V14.3535H100.205Z" fill="#EB2C2C"/>
<path d="M4.95816 2.67888L2.80036 1.42849C2.66577 1.35034 2.50513 1.35034 2.37054 1.42849L0.212741 2.67888C0.0824913 2.75703 0 2.89596 0 3.04792V21.0744C0 21.2264 0.0824913 21.3697 0.212741 21.4435L2.37054 22.6939C2.50513 22.772 2.66577 22.772 2.80036 22.6939L4.95816 21.4435C5.08841 21.3653 5.1709 21.2264 5.1709 21.0744V3.04792C5.1709 2.89596 5.08841 2.75703 4.95816 2.67888Z" fill="#EB2C2C"/>
<path d="M45.9817 2.67888L43.8239 1.42849C43.6893 1.35034 43.5287 1.35034 43.3941 1.42849L41.2363 2.67888C41.1061 2.75703 41.0236 2.89596 41.0236 3.04792V12.7124L33.6037 2.99148L33.4517 2.79176C33.417 2.74835 33.3736 2.70927 33.3215 2.68322C33.2998 2.6702 33.2737 2.65283 33.2477 2.6398L33.239 2.63546L31.168 1.43283C31.0334 1.35468 30.8728 1.35468 30.7382 1.43283L28.5804 2.68322C28.4502 2.76137 28.3677 2.9003 28.3677 3.05226V21.0788C28.3677 21.2307 28.4502 21.374 28.5804 21.4478L30.7382 22.6982C30.8728 22.7764 31.0334 22.7764 31.168 22.6982L33.3258 21.4478C33.4561 21.3697 33.5386 21.2307 33.5386 21.0788V11.4186L41.1495 21.387L41.1625 21.3827C41.1886 21.4087 41.2146 21.4261 41.245 21.4435L43.4028 22.6939C43.5374 22.772 43.698 22.772 43.8326 22.6939L45.9904 21.4435C46.1207 21.3653 46.2032 21.2264 46.2032 21.0744V3.04792C46.1988 2.89596 46.1163 2.75269 45.9817 2.67888Z" fill="#EB2C2C"/>
<path d="M17.2321 1.37183H10.3289C10.2551 1.37183 10.1813 1.39353 10.1161 1.42827L7.95835 2.67866C7.8281 2.75681 7.74561 2.89574 7.74561 3.0477V21.0742C7.74561 21.2262 7.8281 21.3694 7.95835 21.4433L10.1161 22.6936C10.19 22.7371 10.2724 22.7544 10.3549 22.7501H17.2364C21.9558 22.7501 25.7808 18.9251 25.7808 14.2057V9.91618C25.7851 5.19682 21.9558 1.37183 17.2321 1.37183C17.2321 1.37183 17.2364 1.37183 17.2321 1.37183ZM20.6142 13.5979C20.6142 16.2506 18.4608 18.4041 15.808 18.4041H12.9165V5.71781H15.808C18.4608 5.71781 20.6142 7.87127 20.6142 10.524V13.5979Z" fill="#EB2C2C"/>
</svg>
